<?xml version="1.0" encoding="utf-8" ?><svg xmlns="http://www.w3.org/2000/svg" xmlns:xlink="http://www.w3.org/1999/xlink" width="512" height="512" viewBox="0 0 512 512"><path fill="#74B201" d="M0.266726 120.974C1.67525 111.297 7.02707 101.707 14.9275 95.83C20.8767 91.4852 27.9219 88.89 35.2679 88.3371C39.0403 88.0476 42.8747 88.1692 46.6573 88.1702L65.1866 88.1836L122.448 88.1874L302.793 88.1827L424.553 88.1818L459.346 88.182C466.218 88.1821 473.486 87.6927 480.289 88.7291C489.718 90.1658 499.027 95.9223 504.664 103.613C507.682 107.729 509.579 111.984 510.91 116.898C511.308 118.365 511.543 119.898 512 121.344L512 390.641C511.943 390.794 511.885 390.947 511.83 391.101C510.916 393.645 510.688 396.436 509.755 399.016C506.542 407.899 499.256 415.664 490.821 419.819C485.851 422.267 480.636 423.474 475.116 423.703C467.921 424.001 460.632 423.773 453.43 423.772L413.36 423.763L292.066 423.759L130.995 423.757L67.7071 423.76L47.3895 423.774C43.2272 423.775 38.9878 423.931 34.8404 423.564C31.579 423.285 28.3663 422.592 25.2799 421.501C15.8637 418.123 8.12683 411.221 3.70016 402.25C1.98227 398.694 1.00549 395.107 0.304883 391.239L0 391.151L0 120.89L0.266726 120.974Z"/><path fill="#7BA90B" d="M0 120.89L0.266726 120.974C0.461277 129.839 0.268283 138.741 0.261934 147.611L0.257941 198.097L0.304883 391.239L0 391.151L0 120.89Z"/><path fill="#FEE25B" d="M254.378 134.049C256.093 133.86 257.516 133.954 259.127 134.605C262.109 135.81 264.897 137.749 267.631 139.438L278.592 146.155L322.655 172.959L405.277 223.25L431.817 239.396C436.465 242.217 441.324 244.902 445.818 247.95C447.752 249.262 449.481 250.676 450.327 252.94C451.145 255.13 451.024 257.739 449.98 259.832C448.944 261.908 447.182 263.165 445.296 264.398C440.637 267.444 435.749 270.194 430.989 273.087L402.73 290.296L319.221 341.137L278.256 366.085C273.09 369.228 262.753 376.272 257.591 377.958C255.846 378.112 254.425 378.086 252.77 377.379C250.109 376.241 247.604 374.472 245.134 372.96L232.433 365.205L189.734 339.224L107.333 289.056L80.0072 272.438C75.3605 269.613 70.5631 266.911 66.0279 263.918C64.1072 262.651 62.5 261.232 61.6878 259.014C60.8889 256.832 60.9915 254.223 62.0268 252.136C62.8971 250.382 64.2701 249.259 65.8653 248.202C71.1876 244.678 76.8119 241.5 82.2735 238.19L110.092 221.255L194.011 170.18L234.171 145.73C239.296 142.609 249.213 135.83 254.378 134.049Z"/><path fill="#41469C" d="M195.283 219.954C205.103 203.812 220.513 192.037 238.934 187.488C257.324 182.93 276.773 185.923 292.943 195.798C308.966 205.652 320.397 221.49 324.704 239.801C326.372 246.946 327.07 254.703 326.314 262.037C325.541 268.874 324.068 275.156 321.761 281.633C315.477 297.783 303.468 311.056 288.024 318.917C271.286 327.403 251.865 328.905 234.021 323.092C216.224 317.229 201.474 304.556 192.996 287.846C186.638 275.229 184.195 261.001 185.981 246.986C186.346 244.039 186.78 240.888 187.71 238.064C189.678 231.657 192.118 225.847 195.283 219.954Z"/><path fill="#41469C" d="M195.283 219.954C205.103 203.812 220.513 192.037 238.934 187.488C257.324 182.93 276.773 185.923 292.943 195.798C308.966 205.652 320.397 221.49 324.704 239.801C326.372 246.946 327.07 254.703 326.314 262.037C323.557 260.237 321.002 257.967 318.347 256C313.633 252.513 308.726 249.295 303.65 246.359C276.365 230.739 244.947 222.133 213.636 220.236C207.583 219.869 201.34 219.444 195.283 219.954Z"/><path fill="#F6F6F6" d="M283.269 223.376C284.119 224.043 284.274 225.207 284.551 226.2L288.102 226.278C287.24 226.954 286.196 227.606 285.641 228.565C285.475 229.689 286.218 230.918 286.642 231.949C285.633 231.416 284.782 230.803 283.882 230.11L283.264 230.1C282.513 230.58 281.899 231.024 281.005 231.156C280.739 230.49 281.427 229.247 281.682 228.549L278.773 226.293L282.332 226.227L283.269 223.376Z"/><path fill="#F6F6F6" d="M195.283 219.954C201.34 219.444 207.583 219.869 213.636 220.236C244.947 222.133 276.365 230.739 303.65 246.359C308.726 249.295 313.633 252.513 318.347 256C321.002 257.967 323.557 260.237 326.314 262.037C325.541 268.874 324.068 275.156 321.761 281.633C318.211 278.998 315.066 275.638 311.557 272.885C284.27 251.473 248.841 240.74 214.624 238.084C205.85 237.402 196.46 237.012 187.71 238.064C189.678 231.657 192.118 225.847 195.283 219.954Z"/><path fill="#F6F6F6" d="M257.895 279.329L258.421 279.588C259.736 281.18 260.178 283.789 260.707 285.737L262.197 285.724C263.726 285.714 266.041 285.398 267.196 286.539C267.184 286.627 267.184 286.717 267.16 286.803C266.787 288.182 263.514 289.94 262.301 290.717C262.959 292.258 263.939 294.405 264.057 296.073C264.097 296.637 264.053 296.724 263.716 297.139C262.06 297.204 259.737 294.956 258.427 293.95C256.381 294.472 254.162 296.916 251.847 297.771C252.441 295.372 253.142 293.065 253.967 290.734C252.654 289.835 251.109 288.933 249.973 287.817C249.495 287.348 249.263 287.082 249.232 286.412C250.432 285.284 253.956 285.706 255.584 285.72C256.209 283.533 256.914 281.383 257.895 279.329Z"/><path fill="#F6F6F6" d="M216.475 280.128C217.488 280.811 217.756 282.464 218.083 283.572C219.501 283.527 220.943 283.615 222.363 283.654C221.296 284.558 220.157 285.392 219.062 286.265C219.463 287.582 219.729 288.928 220.014 290.274L216.815 287.955C215.543 288.61 214.319 289.573 213.131 290.381C213.539 288.988 214.002 287.642 214.525 286.288C213.338 285.474 212.242 284.607 211.143 283.679L215.297 283.583C215.664 282.422 216.056 281.27 216.475 280.128Z"/><path fill="#F6F6F6" d="M248.29 269.105C248.812 269.435 249.006 269.732 249.258 270.278C249.465 270.725 249.652 271.1 249.95 271.499C250.941 272.021 252.214 271.924 253.316 271.971L250.338 273.929C250.786 275.035 251.065 276.231 251.393 277.378L248.759 275.463C247.711 275.509 246.518 276.818 245.723 277.48L246.839 273.932C245.844 273.273 244.813 272.66 243.802 272.026C244.946 271.903 246.204 272.049 247.259 271.54C247.955 270.912 248.073 269.978 248.29 269.105Z"/><path fill="#F6F6F6" d="M203.498 266.108C204.015 266.425 204.167 266.701 204.416 267.231C204.646 267.72 204.865 268.144 205.179 268.588C206.107 269.099 207.407 268.99 208.451 269.028C207.475 269.696 206.541 270.425 205.598 271.139L206.841 274.446L203.859 272.499C202.841 272.589 201.564 273.945 200.769 274.59L202.042 270.963L198.955 269.061C200.109 268.953 201.331 269.102 202.407 268.623C203.151 268.014 203.272 267.001 203.498 266.108Z"/><path fill="#F6F6F6" d="M281.372 294.38C282.341 294.94 282.485 296.126 282.762 297.132L286.356 297.113L283.443 299.386C283.907 300.454 284.3 301.568 284.724 302.654C283.732 302.075 282.809 301.426 281.874 300.762C280.807 300.87 279.59 302.053 278.718 302.702C279.066 301.557 279.536 300.44 279.966 299.322C279.013 298.597 278.065 297.865 277.124 297.125L280.576 297.12C280.878 296.224 281.109 295.29 281.372 294.38Z"/><path fill="#F6F6F6" d="M241.107 293.582L241.495 293.778C241.974 294.463 242.067 295.403 242.232 296.214L245.784 296.231C244.902 297.047 243.946 297.757 242.991 298.484C243.49 299.536 243.883 300.632 244.296 301.72C243.285 301.155 242.337 300.519 241.378 299.872C240.358 300.436 239.349 301.018 238.349 301.617C238.725 300.565 239.147 299.527 239.551 298.485C238.589 297.828 237.713 297.064 236.82 296.317L240.226 296.236L241.107 293.582Z"/><path fill="#F6F6F6" d="M301.245 280.571C302.163 281.158 302.369 282.291 302.709 283.269L306.065 283.318C305.29 283.974 304.19 284.601 303.6 285.417C303.398 285.697 303.951 287.478 304.009 288L303.769 288.232C302.98 288.06 302.169 287.252 301.529 286.751C300.6 287.514 299.585 288.172 298.594 288.852C298.941 287.707 299.386 286.61 299.832 285.501C298.832 284.862 297.96 284.103 297.064 283.33C298.12 283.34 299.277 283.49 300.247 283.02C300.903 282.394 301.029 281.424 301.245 280.571Z"/><path fill="#F6F6F6" d="M206.418 252.356C207.228 252.928 207.163 253.91 207.867 254.47C208.176 254.715 209.114 254.539 209.519 254.521L209.802 254.862C209.518 255.665 208.318 255.94 208.279 256.621C208.237 257.349 208.909 257.713 208.691 258.61C207.994 258.584 207.236 257.899 206.644 257.503C206.096 257.922 205.562 258.296 204.972 258.653L204.714 258.483C204.846 257.73 204.929 257.094 204.862 256.331C204.225 255.855 203.998 255.606 203.675 254.88L203.939 254.566C204.625 254.597 205.122 254.69 205.763 254.399C206.008 253.723 206.219 253.047 206.418 252.356Z"/><path fill="#F6F6F6" d="M220.318 264.588L220.958 265.011C221.907 267.634 222.214 265.95 223.787 266.991L223.71 267.441C220.939 269.265 223.459 269.066 222.607 270.779C221.9 270.714 221.353 270.061 220.839 269.611C220.454 269.774 220.611 269.68 220.272 269.936C219.761 270.323 219.425 270.691 218.75 270.707C218.495 269.993 219.093 269.13 218.989 268.291C218.491 268.012 218.079 267.764 217.648 267.384L217.804 266.934C218.29 266.665 218.719 266.624 219.26 266.563L219.489 266.539C220.12 265.919 220.116 265.436 220.318 264.588Z"/><path fill="#F6F6F6" d="M294.267 295.129C294.999 295.537 295.056 296.708 295.752 296.991C296.272 297.202 296.985 297 297.611 297.272C297.635 297.981 296.554 298.359 296.25 299.139C296.471 299.763 296.686 300.184 296.606 300.856C295.769 300.882 295.313 300.499 294.584 300.108C293.961 300.446 293.634 300.764 292.908 300.702C292.851 299.633 292.812 298.984 292.19 298.11C292.017 297.867 291.861 297.619 291.704 297.366C292.31 296.828 292.668 297.014 293.466 297.019C294.066 296.424 294.069 295.938 294.267 295.129Z"/></svg>