<?xml version="1.0" encoding="utf-8" ?><svg xmlns="http://www.w3.org/2000/svg" xmlns:xlink="http://www.w3.org/1999/xlink" width="512" height="512" viewBox="0 0 512 512"><path fill="#FFD351" d="M0 121.594C0.056691 121.459 0.116293 121.325 0.170073 121.188C1.07257 118.898 1.27157 116.002 2.13133 113.561C5.5844 103.919 12.767 96.0702 22.0647 91.7772C26.6758 89.6429 31.6655 88.4478 36.7431 88.2614C46.0808 87.953 55.5033 88.1959 64.8489 88.1951L117.685 88.1927L276.64 88.199L409.329 88.2037L451.907 88.1968C459.632 88.1891 467.47 87.8974 475.183 88.2621C479.3 88.4568 483.155 89.1568 487.025 90.586C497.063 94.2924 504.725 101.631 509.096 111.38C510.639 114.823 510.739 118.602 512 121.623L512 158.811L512 353.191L512 390.453L511.93 390.663C511.035 393.423 510.667 396.313 509.683 399.066C506.556 407.818 499.598 415.217 491.418 419.478C486.154 422.219 480.609 423.476 474.705 423.766C466.073 424.19 457.279 423.853 448.625 423.847L400.279 423.839L251.414 423.842L106.693 423.844L66.3636 423.844L49.6248 423.843C42.2339 423.843 34.3527 424.382 27.2399 422.094C17.1099 418.836 8.92879 412.257 4.02667 402.742C2.66609 400.102 1.80826 397.57 1.07352 394.709C0.742549 393.421 0.546503 391.874 0 390.678L0 353.262L0 158.809L0 121.594Z"/><path fill="#C9424B" d="M0.405837 353.181L512 353.191L512 390.453L511.93 390.663C511.035 393.423 510.667 396.313 509.683 399.066C506.556 407.818 499.598 415.217 491.418 419.478C486.154 422.219 480.609 423.476 474.705 423.766C466.073 424.19 457.279 423.853 448.625 423.847L400.279 423.839L251.414 423.842L106.693 423.844L66.3636 423.844L49.6248 423.843C42.2339 423.843 34.3527 424.382 27.2399 422.094C17.1099 418.836 8.92879 412.257 4.02667 402.742C2.66609 400.102 1.80826 397.57 1.07352 394.709C0.742549 393.421 0.546503 391.874 0 390.678L0 353.262L0.405837 353.181Z"/><path fill="#C9424B" d="M0 121.594C0.056691 121.459 0.116293 121.325 0.170073 121.188C1.07257 118.898 1.27157 116.002 2.13133 113.561C5.5844 103.919 12.767 96.0702 22.0647 91.7772C26.6758 89.6429 31.6655 88.4478 36.7431 88.2614C46.0808 87.953 55.5033 88.1959 64.8489 88.1951L117.685 88.1927L276.64 88.199L409.329 88.2037L451.907 88.1968C459.632 88.1891 467.47 87.8974 475.183 88.2621C479.3 88.4568 483.155 89.1568 487.025 90.586C497.063 94.2924 504.725 101.631 509.096 111.38C510.639 114.823 510.739 118.602 512 121.623L512 158.811L0.320736 158.816L0 158.809L0 121.594Z"/><path fill="#FBB748" d="M0 158.809L0.320736 158.816C0.0447949 164.102 0.244129 169.484 0.247137 174.78L0.253886 203.363L0.257961 292.382L0.244731 336.377C0.240792 339.436 -0.245968 351.095 0.405837 353.181L0 353.262L0 158.809Z"/><path fill="#FBB748" d="M176.646 229.654C181.319 229.461 187.809 228.498 191.484 232.018C194.063 234.489 194.271 237.895 194.266 241.237C194.259 246.172 194.142 251.109 194.202 256.043L194.225 264.858C194.246 267.019 194.695 271.835 194.013 273.676C194.627 275.543 194.216 295.586 193.85 298.495C193.551 300.87 193.085 303.11 192.01 305.262C190.896 307.488 189.311 309.368 187.708 311.248C187.705 311.29 187.702 311.332 187.701 311.373C187.669 312.084 187.507 312.432 187.075 312.973C180.715 320.925 168.401 324.993 158.662 326.114C144.979 327.688 128.56 326.018 117.517 317.117C115.78 315.717 111.622 312.361 111.368 310.044C111.184 309.037 107.752 304.403 107.09 301.967C105.129 294.74 105.992 281.077 106.016 273.306C105.899 270.493 105.982 267.639 105.976 264.822C101.58 264.732 97.1725 264.792 92.7749 264.791C86.8505 264.722 80.9179 264.784 74.9927 264.782L70.6199 264.789L70.594 256.034L74.9918 256.03L75.0111 238.38C80.8605 238.958 86.8312 238.479 92.7017 238.535C92.8099 244.357 92.5175 250.217 92.7381 256.029L105.969 256.008C105.996 251.131 105.305 240.623 106.316 236.44C106.725 234.745 107.528 233.2 108.78 231.973C111.678 229.133 115.653 229.568 119.38 229.548C128.956 230.139 140.421 230.246 150.012 229.736C158.876 229.745 167.788 229.947 176.646 229.654Z"/><path fill="#C9424B" d="M119.38 229.548C128.956 230.139 140.421 230.246 150.012 229.736L150.006 260.441C146.794 260.457 143.698 261.644 141.298 263.779C140.853 264.175 140.436 264.6 140.049 265.051C138.077 267.352 136.957 270.26 136.875 273.288L106.016 273.306C105.899 270.493 105.982 267.639 105.976 264.822C101.58 264.732 97.1725 264.792 92.7749 264.791C86.8505 264.722 80.9179 264.784 74.9927 264.782L70.6199 264.789L70.594 256.034L74.9918 256.03L75.0111 238.38C80.8605 238.958 86.8312 238.479 92.7017 238.535C92.8099 244.357 92.5175 250.217 92.7381 256.029L105.969 256.008C105.996 251.131 105.305 240.623 106.316 236.44C106.725 234.745 107.528 233.2 108.78 231.973C111.678 229.133 115.653 229.568 119.38 229.548Z"/><path fill="#FBB748" d="M114.755 238.307C123.577 238.353 132.401 238.206 141.222 238.352L141.236 247.172L136.812 247.14L136.775 255.972L141.265 256.001C141.222 258.594 141.233 261.187 141.298 263.779C140.853 264.175 140.436 264.6 140.049 265.051C137.512 264.678 134.653 264.871 132.083 264.853L114.971 264.878C114.94 261.914 114.932 258.949 114.947 255.985L119.198 255.979C119.149 253.053 119.197 250.118 119.201 247.191C117.724 247.208 116.242 247.165 114.765 247.148L114.755 238.307Z"/><path fill="#F6F6F6" d="M75.0111 238.38C80.8605 238.958 86.8312 238.479 92.7017 238.535C92.8099 244.357 92.5175 250.217 92.7381 256.029L74.9918 256.03L75.0111 238.38Z"/><path fill="#F6F6F6" d="M176.646 229.654C181.319 229.461 187.809 228.498 191.484 232.018C194.063 234.489 194.271 237.895 194.266 241.237C194.259 246.172 194.142 251.109 194.202 256.043L194.225 264.858C194.246 267.019 194.695 271.835 194.013 273.676L163.275 273.714C163.293 270.189 161.902 266.802 159.409 264.309C156.917 261.816 153.531 260.423 150.006 260.441L150.012 229.736C158.876 229.745 167.788 229.947 176.646 229.654Z"/><path fill="#FEA0D1" d="M172.013 238.331C173.793 238.444 175.498 238.836 177.016 239.821C179.076 241.157 180.287 243.358 180.726 245.736C181.466 249.746 181.497 257.988 179.117 261.315C177.584 263.457 175.383 264.343 172.886 264.812C170.817 264.813 168.829 264.445 167.09 263.251C165.048 261.849 163.934 259.721 163.494 257.322C162.772 253.385 162.782 245.059 165.16 241.833C166.864 239.522 169.286 238.686 172.013 238.331Z"/><path fill="#C9424B" d="M163.275 273.714L194.013 273.676C194.627 275.543 194.216 295.586 193.85 298.495C193.551 300.87 193.085 303.11 192.01 305.262C190.896 307.488 189.311 309.368 187.708 311.248C184.279 314.529 180.371 316.73 175.639 317.482C169.819 318.41 163.869 316.972 159.116 313.488C154.146 309.863 151.145 304.543 150.241 298.504C150.169 294.618 150.163 290.731 150.223 286.845C153.432 286.808 156.518 285.604 158.904 283.457C159.264 283.133 159.606 282.789 159.928 282.428C162.067 280.028 163.257 276.929 163.275 273.714Z"/><path fill="#FBB748" d="M159.928 282.428C168.421 282.569 176.922 282.425 185.416 282.48C185.189 289.802 187.145 299.688 181.237 305.24C178.651 307.665 175.199 308.949 171.657 308.803C168.104 308.65 164.759 307.089 162.36 304.464C157.176 298.712 159.518 290.421 158.904 283.457C159.264 283.133 159.606 282.789 159.928 282.428Z"/><path fill="#C9424B" d="M167.752 291.272L176.593 291.286C176.599 293.959 176.904 296.435 175.377 298.76C174.318 299.611 173.119 300.189 171.734 300.185C170.776 300.182 169.999 299.806 169.353 299.115C167.374 297.002 167.691 293.93 167.752 291.272Z"/><path fill="#F6F6F6" d="M150.241 298.504C151.145 304.543 154.146 309.863 159.116 313.488C163.869 316.972 169.819 318.41 175.639 317.482C180.371 316.73 184.279 314.529 187.708 311.248C187.705 311.29 187.702 311.332 187.701 311.373C187.669 312.084 187.507 312.432 187.075 312.973C180.715 320.925 168.401 324.993 158.662 326.114C144.979 327.688 128.56 326.018 117.517 317.117C115.78 315.717 111.622 312.361 111.368 310.044C112.433 311.114 113.472 312.237 114.636 313.199C117.368 315.434 120.201 316.457 123.551 317.432C126.605 317.737 129.337 317.772 132.383 317.417C135.701 316.615 138.58 315.387 141.277 313.284C145.021 310.497 147.354 306.83 148.921 302.482C149.345 301.303 149.561 300.017 150.07 298.877C150.125 298.752 150.184 298.628 150.241 298.504Z"/><path fill="#4F63A9" d="M150.006 260.441C153.531 260.423 156.917 261.816 159.409 264.309C161.902 266.802 163.293 270.189 163.275 273.714C163.257 276.929 162.067 280.028 159.928 282.428C159.606 282.789 159.264 283.133 158.904 283.457C156.518 285.604 153.432 286.808 150.223 286.845C146.983 286.881 143.844 285.726 141.401 283.598C138.542 281.107 136.891 277.508 136.871 273.716C136.87 273.573 136.871 273.43 136.875 273.288C136.957 270.26 138.077 267.352 140.049 265.051C140.436 264.6 140.853 264.175 141.298 263.779C143.698 261.644 146.794 260.457 150.006 260.441Z"/><path fill="#C9424B" d="M132.464 273.643C133.937 273.718 135.396 273.729 136.871 273.716C136.891 277.508 138.542 281.107 141.401 283.598C143.844 285.726 146.983 286.881 150.223 286.845C150.163 290.731 150.169 294.618 150.241 298.504C150.184 298.628 150.125 298.752 150.07 298.877C149.561 300.017 149.345 301.303 148.921 302.482C147.354 306.83 145.021 310.497 141.277 313.284C138.58 315.387 135.701 316.615 132.383 317.417C132.593 312.382 132.437 307.291 132.436 302.25L132.464 273.643Z"/><path fill="#FBB748" d="M141.401 283.598C143.844 285.726 146.983 286.881 150.223 286.845C150.163 290.731 150.169 294.618 150.241 298.504C150.184 298.628 150.125 298.752 150.07 298.877C149.561 300.017 149.345 301.303 148.921 302.482C147.354 306.83 145.021 310.497 141.277 313.284C141.376 303.413 141.7 293.462 141.401 283.598Z"/><path fill="#C9424B" d="M114.785 273.622C117.711 273.798 120.643 273.715 123.572 273.677L123.551 317.432C120.201 316.457 117.368 315.434 114.636 313.199C115.1 308.985 114.771 304.431 114.769 300.184C114.767 291.332 114.689 282.473 114.785 273.622Z"/><path fill="#C9424B" d="M128.54 190.732C129.26 188.26 130.6 186.056 132.53 184.336C135.3 181.866 138.874 180.83 142.537 181.092C143.487 181.16 145.092 181.25 145.73 181.98C145.654 185.46 145.5 189.098 145.853 192.561C146.135 193.213 146.103 193.704 146.068 194.392C148.768 194.287 151.488 194.192 154.186 194.406L154.028 194.245C153.859 193.541 153.964 193.384 154.203 192.687C154.779 189.121 154.504 185.16 154.52 181.545C158.76 180.855 162.742 180.772 166.451 183.35C169.012 185.13 170.787 187.844 171.677 190.806C175.32 189.579 178.878 189.485 182.409 191.225C185.598 192.815 188.021 195.61 189.142 198.992C190.252 202.239 189.98 205.8 188.391 208.842C187.72 210.14 185.709 213.088 184.318 213.598C184.127 213.668 183.926 213.665 183.727 213.678C181.239 215.698 179.022 218.226 176.807 220.547C176.574 223.431 176.27 226.779 176.646 229.654C167.788 229.947 158.876 229.745 150.012 229.736C140.421 230.246 128.956 230.139 119.38 229.548C120.732 229.393 122.124 229.469 123.484 229.477C123.667 226.481 123.659 223.569 123.477 220.574C121.075 218.147 118.7 215.679 116.204 213.348C114.583 212.938 113.34 211.556 112.443 210.194C110.602 207.4 109.961 203.57 110.68 200.336C111.467 196.714 113.725 193.582 116.912 191.69C120.708 189.458 124.461 189.619 128.54 190.732Z"/><path fill="#F6F6F6" d="M154.52 181.545C158.76 180.855 162.742 180.772 166.451 183.35C169.012 185.13 170.787 187.844 171.677 190.806C175.32 189.579 178.878 189.485 182.409 191.225C185.598 192.815 188.021 195.61 189.142 198.992C190.252 202.239 189.98 205.8 188.391 208.842C187.72 210.14 185.709 213.088 184.318 213.598C184.127 213.668 183.926 213.665 183.727 213.678C184.244 213.155 184.77 212.756 184.85 211.983C184.26 209.842 181.312 207.772 179.758 206.204C177.464 204.224 175.178 202.344 172.634 200.689C169.52 198.862 166.324 197.449 162.961 196.161C160.068 195.389 157.162 194.752 154.186 194.406L154.028 194.245C153.859 193.541 153.964 193.384 154.203 192.687C154.779 189.121 154.504 185.16 154.52 181.545Z"/><path fill="#FBB748" d="M154.203 192.687C154.356 192.623 154.519 192.579 154.662 192.497C156.424 191.487 155.905 189.719 159.136 189.784C160.254 189.806 161.265 190.283 161.993 191.133C162.744 192.01 163.328 193.315 163.241 194.491C163.199 195.052 163.07 195.61 162.961 196.161C160.068 195.389 157.162 194.752 154.186 194.406L154.028 194.245C153.859 193.541 153.964 193.384 154.203 192.687Z"/><path fill="#FBB748" d="M172.634 200.689C173.854 199.499 174.968 198.621 176.757 198.694C177.95 198.743 179.048 199.234 179.845 200.131C180.606 200.989 180.954 202.17 180.883 203.306C180.814 204.41 180.318 205.277 179.758 206.204C177.464 204.224 175.178 202.344 172.634 200.689Z"/><path fill="#F6F6F6" d="M128.54 190.732C129.26 188.26 130.6 186.056 132.53 184.336C135.3 181.866 138.874 180.83 142.537 181.092C143.487 181.16 145.092 181.25 145.73 181.98C145.654 185.46 145.5 189.098 145.853 192.561C146.135 193.213 146.103 193.704 146.068 194.392C143.062 194.829 140.147 195.389 137.227 196.238C133.73 197.433 130.54 198.988 127.329 200.794C124.856 202.498 122.669 204.722 120.399 206.274C118.883 207.736 115.834 209.953 115.218 211.987C115.429 212.674 115.697 212.854 116.204 213.348C114.583 212.938 113.34 211.556 112.443 210.194C110.602 207.4 109.961 203.57 110.68 200.336C111.467 196.714 113.725 193.582 116.912 191.69C120.708 189.458 124.461 189.619 128.54 190.732Z"/><path fill="#FBB748" d="M137.227 196.238C137.034 195.457 136.834 194.667 136.931 193.857C137.086 192.564 137.821 191.28 138.87 190.505C139.686 189.902 140.73 189.606 141.739 189.773C143.555 190.073 144.633 191.373 145.598 192.805L145.853 192.561C146.135 193.213 146.103 193.704 146.068 194.392C143.062 194.829 140.147 195.389 137.227 196.238Z"/><path fill="#FBB748" d="M120.399 206.274C119.836 205.316 119.301 204.357 119.263 203.221C119.226 201.902 119.751 200.629 120.709 199.721C121.509 198.977 122.616 198.56 123.709 198.628C125.337 198.73 126.324 199.606 127.329 200.794C124.856 202.498 122.669 204.722 120.399 206.274Z"/><path fill="#FBB748" d="M176.807 220.547C176.574 223.431 176.27 226.779 176.646 229.654C167.788 229.947 158.876 229.745 150.012 229.736C140.421 230.246 128.956 230.139 119.38 229.548C120.732 229.393 122.124 229.469 123.484 229.477C123.667 226.481 123.659 223.569 123.477 220.574L161.111 220.576C166.33 220.561 171.594 220.754 176.807 220.547Z"/><path fill="#FBB748" d="M148.849 207.627C151.165 206.957 153.589 208.277 154.282 210.586C154.976 212.895 153.68 215.331 151.379 216.048C149.869 216.518 148.223 216.141 147.068 215.061C145.914 213.981 145.428 212.364 145.796 210.826C146.165 209.288 147.331 208.067 148.849 207.627Z"/><path fill="#FBB748" d="M166.455 207.632C168.797 206.941 171.253 208.292 171.924 210.639C172.596 212.987 171.226 215.432 168.873 216.084C166.547 216.729 164.136 215.378 163.472 213.058C162.808 210.737 164.139 208.315 166.455 207.632Z"/><path fill="#FBB748" d="M131.175 207.634C132.693 207.192 134.331 207.6 135.465 208.702C136.599 209.803 137.053 211.429 136.655 212.959C136.256 214.489 135.067 215.687 133.54 216.096C131.214 216.719 128.82 215.354 128.172 213.034C127.524 210.715 128.863 208.307 131.175 207.634Z"/><path fill="#F6F6F6" d="M74.9927 264.782C80.9179 264.784 86.8505 264.722 92.7749 264.791C92.7203 268.068 92.3348 271.881 92.8542 275.109C94.2912 274.67 95.7055 274.181 97.1227 273.683C97.0437 276.616 96.972 279.61 97.1626 282.541C95.6702 282.999 94.1682 283.435 92.7035 283.976C92.7226 292.302 92.4902 300.697 92.7552 309.013C86.8322 308.99 80.9092 308.999 74.9863 309.04C75.1029 303.982 75.4682 294.621 74.7972 289.906C73.4035 290.466 71.9289 290.848 70.4906 291.278C70.7221 288.365 70.6009 285.394 70.5925 282.472C72.0853 282.037 73.5646 281.557 75.0284 281.032L74.9927 264.782Z"/><path fill="#F6F6F6" d="M74.9927 264.782C80.9179 264.784 86.8505 264.722 92.7749 264.791C92.7203 268.068 92.3348 271.881 92.8542 275.109C86.9204 277.096 80.9993 279.162 75.0284 281.032L74.9927 264.782Z"/><path fill="#C9424B" d="M92.8542 275.109C94.2912 274.67 95.7055 274.181 97.1227 273.683C97.0437 276.616 96.972 279.61 97.1626 282.541C95.6702 282.999 94.1682 283.435 92.7035 283.976C86.7552 285.93 80.8048 288.175 74.7972 289.906C73.4035 290.466 71.9289 290.848 70.4906 291.278C70.7221 288.365 70.6009 285.394 70.5925 282.472C72.0853 282.037 73.5646 281.557 75.0284 281.032C80.9993 279.162 86.9204 277.096 92.8542 275.109Z"/><path fill="#C9424B" d="M207.442 238.409C213.297 238.854 219.229 238.56 225.096 238.521C225.104 244.331 224.92 250.212 225.14 256.013L229.537 256L229.515 264.789L225.104 264.787L207.406 264.798C203.021 264.763 198.607 264.704 194.225 264.858L194.202 256.043C198.609 255.932 203.038 256.025 207.448 256.028L207.442 238.409Z"/><path fill="#F6F6F6" d="M207.442 238.409C213.297 238.854 219.229 238.56 225.096 238.521C225.104 244.331 224.92 250.212 225.14 256.013L207.448 256.028L207.442 238.409Z"/><path fill="#4F63A9" d="M92.7552 309.013C94.2331 309.06 95.6998 309.02 97.177 308.974C97.068 311.788 96.7208 315.035 97.2851 317.787L101.514 317.774L101.494 326.615C89.7855 326.212 77.9427 326.572 66.2189 326.56C66.2547 323.628 66.248 320.695 66.1991 317.763L70.4906 317.791C70.6553 314.885 70.6763 311.973 70.5537 309.064C72.0273 308.999 73.5095 309.085 74.9863 309.04C80.9092 308.999 86.8322 308.99 92.7552 309.013Z"/><path fill="#FBB748" d="M92.7552 309.013C94.2331 309.06 95.6998 309.02 97.177 308.974C97.068 311.788 96.7208 315.035 97.2851 317.787L70.4906 317.791C70.6553 314.885 70.6763 311.973 70.5537 309.064C72.0273 308.999 73.5095 309.085 74.9863 309.04C80.9092 308.999 86.8322 308.99 92.7552 309.013Z"/><path fill="#4F63A9" d="M225.088 309.036C227.989 309.267 231.08 308.988 233.994 308.905C234.001 311.916 234.138 315.01 233.924 318.011L233.889 326.649C222.195 326.216 210.361 326.533 198.652 326.593C198.689 323.649 198.668 320.705 198.59 317.762L207.345 317.787C207.372 314.868 207.814 311.996 207.721 309.061C213.494 308.99 219.318 308.862 225.088 309.036Z"/><path fill="#FBB748" d="M225.088 309.036C227.989 309.267 231.08 308.988 233.994 308.905C234.001 311.916 234.138 315.01 233.924 318.011C232.484 317.359 210.815 317.79 207.345 317.787C207.372 314.868 207.814 311.996 207.721 309.061C213.494 308.99 219.318 308.862 225.088 309.036Z"/><path fill="#C9424B" d="M207.406 264.798L225.104 264.787C225.114 270.125 225.379 275.649 225.04 280.968C226.542 281.428 228.037 281.91 229.526 282.413L229.51 291.225L225.16 289.877C219.245 287.818 213.281 285.884 207.339 283.903L203.103 282.558C202.941 279.605 203.025 276.616 203.023 273.657C204.449 274.081 205.868 274.525 207.281 274.99C207.859 271.826 207.444 268.02 207.406 264.798Z"/><path fill="#F6F6F6" d="M207.406 264.798L225.104 264.787C225.114 270.125 225.379 275.649 225.04 280.968L207.281 274.99C207.859 271.826 207.444 268.02 207.406 264.798Z"/><path fill="#FBB748" d="M210.199 228.787C209.588 226.144 207.813 221.269 209.307 218.801C210.163 217.388 211.715 216.64 213.289 216.336C215.847 215.843 219.757 215.877 221.929 217.42C222.876 218.093 223.558 219.055 223.744 220.213C224.161 222.807 222.923 226.258 222.308 228.799L222.59 229.369C224.738 229.858 227.347 229.568 229.545 229.54C229.541 232.432 229.451 235.359 229.565 238.248C228.074 238.282 226.569 238.268 225.096 238.521C219.229 238.56 213.297 238.854 207.442 238.409C206.005 238.188 204.492 238.29 203.04 238.297L202.983 229.486C205.164 229.553 207.754 229.853 209.887 229.352L210.199 228.787Z"/><path fill="#C9424B" d="M210.199 228.787C209.588 226.144 207.813 221.269 209.307 218.801C210.163 217.388 211.715 216.64 213.289 216.336C215.847 215.843 219.757 215.877 221.929 217.42C222.876 218.093 223.558 219.055 223.744 220.213C224.161 222.807 222.923 226.258 222.308 228.799L222.021 229.32C220.467 229.75 212.365 229.813 210.803 229.373C210.346 229.245 210.417 229.174 210.199 228.787Z"/><path fill="#FBB748" d="M77.9423 229.51C77.3946 226.629 75.4688 222.086 76.671 219.321C77.2297 218.035 78.3288 217.132 79.6247 216.647C82.0392 215.745 86.2035 215.803 88.5346 216.908C90.4057 217.795 90.9593 218.949 91.6111 220.841C91.2292 223.626 90.4364 226.477 89.8349 229.232C91.2699 230.137 95.3329 229.554 97.1369 229.485C97.0432 232.418 97.0199 235.353 97.067 238.287C95.5852 238.291 94.1718 238.321 92.7017 238.535C86.8312 238.479 80.8605 238.958 75.0111 238.38C73.7006 238.081 71.9301 238.261 70.5643 238.253C70.6554 235.339 70.6392 232.414 70.667 229.498C73.0918 229.552 75.5174 229.557 77.9423 229.51Z"/><path fill="#C9424B" d="M77.9423 229.51C77.3946 226.629 75.4688 222.086 76.671 219.321C77.2297 218.035 78.3288 217.132 79.6247 216.647C82.0392 215.745 86.2035 215.803 88.5346 216.908C90.4057 217.795 90.9593 218.949 91.6111 220.841C91.2292 223.626 90.4364 226.477 89.8349 229.232C88.5655 230.01 79.9003 229.424 77.9423 229.51Z"/><path fill="#F6F6F6" d="M207.339 283.903C213.281 285.884 219.245 287.818 225.16 289.877C224.94 296.255 225.159 302.653 225.088 309.036C219.318 308.862 213.494 308.99 207.721 309.061C206.903 307.586 207.539 287.367 207.339 283.903Z"/><path fill="#FBB748" d="M145.71 176.504L154.491 176.506C154.512 178.185 154.521 179.865 154.52 181.545C154.504 185.16 154.779 189.121 154.203 192.687C153.964 193.384 153.859 193.541 154.028 194.245L154.186 194.406C151.488 194.192 148.768 194.287 146.068 194.392C146.103 193.704 146.135 193.213 145.853 192.561C145.5 189.098 145.654 185.46 145.73 181.98C145.505 180.23 145.694 178.277 145.71 176.504Z"/></svg>