<?xml version="1.0" encoding="utf-8" ?><svg xmlns="http://www.w3.org/2000/svg" xmlns:xlink="http://www.w3.org/1999/xlink" width="512" height="512" viewBox="0 0 512 512"><path fill="#F6F6F6" d="M0 121.037C0.972929 119.276 1.1818 116.381 1.78019 114.366C3.73798 107.774 8.27416 101.639 13.4405 97.2008C18.9139 92.4991 26.1133 89.396 33.2486 88.4318C40.707 87.4241 52.3364 88.0295 60.1909 88.0315L112.248 88.0322L190.81 88.031L215.702 88.0198C221.05 88.0179 226.436 87.869 231.773 88.2489C237.529 87.8275 243.419 88.0671 249.194 88.0666L279.396 88.0677L373.426 88.0736L442.476 88.0698L463.47 88.0561C468.772 88.055 474.127 87.885 479.4 88.5262C486.003 89.3293 493.36 92.6022 498.388 96.9536C503.594 101.46 508.129 107.265 510.085 113.982C510.743 116.434 511.078 119.479 512 121.803L512 139.924L512 165.696L512 191.513L512 217.294L512 243.119L512 268.956L512 294.74L512 320.5L512 346.31L512 372.127L512 390.437C511.037 392.831 510.769 395.561 510.056 398.053C509.571 399.415 509.071 400.765 508.443 402.069C504.01 411.335 496.035 418.427 486.316 421.748C477.136 424.943 466.716 424.014 457.115 424.013L435.511 424.007L382.37 424.002L226.853 424.001L100.722 424.001L59.6741 424.003C52.4078 424.008 45.0454 424.266 37.7904 423.958C32.194 423.72 26.5839 422.517 21.5444 420.023C12.3584 415.583 5.319 407.668 1.98207 398.026C1.141 395.511 1.06723 392.61 0 390.227L0 389.273L0 372.112L0 346.342L0 320.5L0 294.72L0 262.301L0 121.037Z"/><path fill="#41479C" d="M0 121.037C0.972929 119.276 1.1818 116.381 1.78019 114.366C3.73798 107.774 8.27416 101.639 13.4405 97.2008C18.9139 92.4991 26.1133 89.396 33.2486 88.4318C40.707 87.4241 52.3364 88.0295 60.1909 88.0315L112.248 88.0322L190.81 88.031L215.702 88.0198C221.05 88.0179 226.436 87.869 231.773 88.2489C234.623 89.8218 236.957 91.4973 237.929 94.7952C239.07 98.6661 238.265 109.336 238.339 114.015C238.282 122.635 238.294 131.256 238.377 139.875C238.203 148.447 238.081 157.166 238.346 165.732C238.274 174.296 238.182 182.903 238.365 191.465C238.315 200.007 237.937 208.778 238.34 217.303C238.289 225.887 238.298 234.471 238.368 243.054C238.302 247.631 238.974 258.025 238.01 261.95C237.605 263.64 236.745 265.186 235.525 266.423C234.546 267.413 233.328 268.058 232.12 268.718C227.554 269.101 222.908 268.949 218.328 268.948L196.98 268.94L129.057 268.94L40.7761 268.94L21.6161 268.947C17.1681 268.963 10.0152 269.6 5.84794 268.422C2.83547 267.571 1.35781 264.872 0 262.301L0 121.037Z"/><path fill="#F6F6F6" d="M166.507 138.335C166.574 138.37 166.644 138.399 166.707 138.44C168.254 139.425 168.908 143.246 169.401 144.995C172.016 145.015 174.589 144.99 177.176 145.417C175.428 147.365 173.197 148.855 171.088 150.384C171.776 151.825 173.04 154.594 172.904 156.196C172.866 156.639 172.785 156.606 172.487 156.887C170.668 156.841 168.209 154.559 166.737 153.489C165.315 154.277 164.148 155.531 162.675 156.303C162.046 156.632 161.559 156.9 160.86 156.683C160.174 155.231 161.821 151.806 162.36 150.289C160.961 149.303 159.233 148.301 158.066 147.044C157.628 146.573 157.466 146.35 157.494 145.709C158.846 144.563 162.33 145.006 164.081 145.025C164.736 142.791 165.352 140.369 166.507 138.335Z"/><path fill="#F6F6F6" d="M71.3101 138.317C71.4454 138.39 71.5901 138.447 71.716 138.535C73.0759 139.485 73.7521 143.363 74.1973 144.996C76.0136 144.978 78.4857 144.698 80.1909 145.291C80.7288 145.478 80.7267 145.464 80.9797 146.007C80.3477 147.71 77.439 149.268 75.9438 150.3C76.5917 151.873 77.6071 154.102 77.6811 155.808C77.7058 156.379 77.72 156.422 77.3333 156.87C75.6058 156.954 73.0221 154.526 71.6347 153.496C70.0101 153.953 68.4479 156.151 66.7463 156.868C66.1977 157.1 66.1066 157.083 65.5888 156.866C64.9981 155.191 66.6029 151.874 67.1791 150.217C65.7295 149.23 63.7364 148.152 62.6365 146.771C62.276 146.318 62.2572 146.232 62.3043 145.685C63.738 144.569 67.0528 145.003 68.8487 145.027C69.6258 142.771 70.228 140.451 71.3101 138.317Z"/><path fill="#F6F6F6" d="M119.024 138.349C120.65 139.474 121.291 143.109 121.854 145.006C124.442 145.015 126.988 144.969 129.542 145.441C127.848 147.382 125.644 148.822 123.581 150.343C124.195 152.041 125.739 155.029 124.94 156.749L124.325 156.851C122.432 156.207 120.876 154.696 119.341 153.455C117.015 154.663 115.193 156.512 112.722 157.599C113.099 155.116 113.822 152.699 114.871 150.417C112.761 148.829 110.567 147.296 108.698 145.422C111.291 145.019 113.889 145.025 116.505 144.993C117.176 142.722 117.775 140.383 119.024 138.349Z"/><path fill="#F6F6F6" d="M95.1107 184.066C95.176 184.092 95.2446 184.109 95.3064 184.142C96.8113 184.934 97.5666 189.096 98.0263 190.731C99.8096 190.701 102.27 190.415 103.957 190.977C104.506 191.16 104.507 191.146 104.774 191.694C104.155 193.382 101.359 194.851 99.8754 195.855C100.317 197.264 100.787 198.676 101.162 200.105C101.395 200.99 101.587 201.781 101.109 202.593C99.5583 202.803 96.7785 200.174 95.5279 199.223C93.4228 199.814 91.6326 202.979 89.2066 202.702C88.7263 201.319 90.4882 197.445 91.0277 195.985C89.56 194.945 87.5581 193.81 86.4153 192.414C86.0518 191.97 86.0392 191.971 86.0849 191.371C87.5273 190.283 90.9352 190.709 92.7335 190.72C93.3601 188.432 94.0331 186.188 95.1107 184.066Z"/><path fill="#F6F6F6" d="M214.103 138.338C214.228 138.406 214.362 138.459 214.478 138.541C215.824 139.493 216.542 143.386 217.015 145.014C218.732 144.992 220.868 144.768 222.536 145.165C223.159 145.313 223.426 145.39 223.752 145.946C223.225 147.629 220.168 149.295 218.724 150.316C219.269 151.698 219.807 153.15 220.182 154.587C220.38 155.345 220.569 156.112 220.143 156.818L219.525 156.901C217.652 156.196 216.022 154.678 214.456 153.454C212.674 154.134 211.278 156.176 209.411 156.894C208.877 157.1 208.799 157.069 208.316 156.832C207.824 155.035 209.357 152.005 209.999 150.254C208.531 149.239 206.53 148.145 205.417 146.764C205.056 146.317 205.038 146.233 205.083 145.69C206.518 144.584 209.858 144.996 211.654 145.005C212.35 142.751 212.981 140.422 214.103 138.338Z"/><path fill="#F6F6F6" d="M23.8104 138.352C25.4909 139.455 26.0997 143.084 26.6459 144.999C28.3017 144.986 30.0985 144.857 31.7343 145.1C32.4396 145.205 32.9364 145.317 33.3485 145.911C32.9833 147.509 29.7267 149.381 28.3897 150.36C28.9734 151.95 29.7553 153.694 30.0139 155.37C30.1158 156.03 30.139 156.358 29.7516 156.904C28.052 156.987 25.429 154.498 24.0631 153.467C21.9335 155.018 19.8959 156.584 17.462 157.627C17.9527 155.146 18.6878 152.72 19.6564 150.384C17.5935 148.771 15.3892 147.331 13.5903 145.414C16.1548 145.045 18.6917 145.025 21.276 144.994C21.9661 142.79 22.5748 140.32 23.8104 138.352Z"/><path fill="#F6F6F6" d="M142.63 214.784C142.838 214.851 142.97 214.88 143.16 215.011C144.438 215.89 145.228 219.882 145.695 221.429C147.46 221.381 150.223 220.997 151.816 221.752C152.259 221.963 152.18 222.013 152.342 222.432C151.646 224.147 148.859 225.562 147.336 226.577C147.921 228.199 148.773 230.037 149.008 231.749C149.095 232.385 149.13 232.693 148.723 233.218C147.045 233.335 144.485 230.92 143.124 229.902C141.044 230.421 139.325 233.564 137.032 233.286C136.4 231.605 137.991 228.287 138.633 226.614C137.116 225.608 135.01 224.403 133.834 223.008C133.473 222.581 133.449 222.578 133.519 222.001C135.069 220.968 138.392 221.402 140.261 221.435C140.834 219.187 141.613 216.868 142.63 214.784Z"/><path fill="#F6F6F6" d="M118.836 199.812L119.39 200.014C120.761 201.307 121.335 204.487 121.89 206.307C122.518 206.333 123.145 206.335 123.773 206.345C125.218 206.368 127.6 206.131 128.659 207.223L128.502 207.846C127.182 209.35 125.241 210.456 123.53 211.475C124.162 213.06 125.268 215.376 125.214 217.1C125.195 217.7 125.133 217.746 124.714 218.127C122.89 218.085 120.777 215.925 119.374 214.803C117.599 215.678 116.137 217.24 114.296 218.026C113.773 218.249 113.733 218.31 113.194 218.075C112.712 216.34 114.201 213.284 114.806 211.572C113.469 210.67 110.108 208.737 109.646 207.23L109.954 206.817C111.971 206.159 114.367 206.342 116.471 206.306C117.166 204.107 117.8 201.88 118.836 199.812Z"/><path fill="#F6F6F6" d="M190.287 184.099C190.4 184.151 190.518 184.192 190.625 184.255C191.996 185.063 192.759 189.183 193.152 190.715C195.789 190.743 198.388 190.723 201.009 191.067C199.259 193.02 197.067 194.466 194.927 195.952C195.523 197.585 196.424 199.503 196.608 201.223C196.676 201.85 196.66 202.116 196.255 202.596C194.548 202.682 191.992 200.205 190.638 199.164C189.197 199.838 187.8 201.162 186.419 202.021C185.779 202.419 185.272 202.778 184.514 202.603C183.981 200.974 185.589 197.582 186.161 195.949C184.786 194.979 183.153 194.007 181.966 192.811C181.485 192.326 181.274 192.077 181.263 191.392C182.586 190.26 186.114 190.712 187.839 190.733C188.536 188.506 189.134 186.137 190.287 184.099Z"/><path fill="#F6F6F6" d="M47.3957 214.792L48.0887 215.043C49.4251 216.62 49.8944 219.396 50.4372 221.381C52.2092 221.362 55.2174 221 56.7734 221.822C57.2053 222.05 57.0516 221.931 57.21 222.476C56.3691 224.185 53.7282 225.526 52.1411 226.576C52.7785 228.15 53.5996 230.074 53.8469 231.756C53.9399 232.388 53.9374 232.676 53.5467 233.178C51.9156 233.31 49.424 231.039 48.0973 230.075C47.1968 229.693 43.7475 233.027 42.2651 233.336C41.7743 233.438 41.9751 233.431 41.4767 233.137C41.2889 231.97 42.9717 227.853 43.4123 226.559C41.9718 225.709 39.8092 224.38 38.7578 223.096C38.3814 222.636 38.3719 222.546 38.4278 221.988C39.8739 220.911 43.2869 221.416 45.079 221.473C45.7383 219.207 46.4522 216.958 47.3957 214.792Z"/><path fill="#F6F6F6" d="M94.991 214.85L95.6002 215.038C96.9926 216.357 97.5423 219.568 98.0862 221.425C99.8446 221.39 103.408 220.886 104.758 222.151L104.666 222.726C103.385 224.34 101.484 225.413 99.7935 226.556C100.319 228.109 101.801 231.228 101.29 232.765C101.179 233.097 100.97 233.074 100.676 233.189C98.797 232.806 97.078 231.035 95.6319 229.862C93.7863 230.606 92.251 232.276 90.4304 233.132C89.9046 233.379 89.8733 233.442 89.317 233.216C88.9082 231.41 90.3692 228.385 90.9822 226.617C89.5712 225.613 87.8805 224.603 86.6738 223.358C86.2085 222.878 86.0248 222.661 86.0631 221.992C87.4933 220.921 90.8526 221.404 92.6266 221.451C93.3361 219.216 94.0125 216.987 94.991 214.85Z"/><path fill="#F6F6F6" d="M190.301 153.338C192.05 154.376 192.638 158.083 193.182 159.987C195.802 160.044 198.42 160.162 201.034 160.341C200.986 160.394 200.939 160.447 200.89 160.498C200.809 160.585 200.726 160.668 200.645 160.755C198.969 162.551 196.896 163.822 195.017 165.386C195.535 166.902 196.14 168.451 196.476 170.02C196.626 170.721 196.712 171.271 196.326 171.897C194.751 172.088 191.797 169.427 190.512 168.495C188.802 169.573 187.017 171.614 184.926 171.861L184.562 171.54C184.326 169.566 185.502 167.136 186.167 165.283C185.083 164.531 184.011 163.764 182.949 162.983C182.148 162.386 181.289 161.846 181.138 160.807C182.339 159.697 186.223 160.039 187.85 160.004C188.558 157.762 189.192 155.418 190.301 153.338Z"/><path fill="#F6F6F6" d="M213.974 107.865L214.58 108.053C215.985 109.493 216.48 112.505 217.03 114.435C218.856 114.4 222.436 113.895 223.843 115.16C223.485 116.876 220.173 118.596 218.743 119.541C219.016 120.262 219.273 120.99 219.513 121.723C219.933 122.975 220.748 124.698 220.108 125.978L219.543 126.166C217.64 125.64 216.148 124.127 214.643 122.904C212.537 123.522 210.85 126.299 208.539 126.349L208.204 126.016C208.028 124.088 209.33 121.427 209.971 119.638C208.646 118.695 207.251 117.776 206.017 116.716C205.442 116.222 205.05 115.833 205.011 115.064C206.279 113.919 209.889 114.405 211.58 114.44C212.3 112.22 212.97 109.977 213.974 107.865Z"/><path fill="#F6F6F6" d="M166.386 107.781L167 108.003C168.358 109.405 168.88 112.478 169.418 114.371C171.115 114.365 173.141 114.176 174.79 114.542C175.457 114.69 175.761 114.768 176.132 115.347C175.717 116.952 172.532 118.647 171.155 119.584C171.723 121.21 172.538 123.031 172.768 124.741C172.854 125.383 172.896 125.687 172.488 126.222C170.814 126.316 168.304 123.959 166.957 122.961C165.305 123.001 163.266 125.898 161.458 126.415C160.962 126.557 161.182 126.548 160.667 126.254C160.297 124.379 161.755 121.366 162.366 119.549C160.962 118.669 158.292 117.194 157.473 115.735C157.236 115.314 157.305 115.495 157.452 114.94C159.046 113.955 162.172 114.416 164.032 114.476C164.735 112.208 165.429 109.958 166.386 107.781Z"/><path fill="#F6F6F6" d="M23.7892 230.341C25.5115 231.332 26.1014 235.071 26.6192 236.946C29.2313 237.012 31.8183 236.982 34.4009 237.429C32.5808 239.295 30.4707 240.792 28.3922 242.351C29.0074 243.997 29.988 246.059 30.0598 247.818C30.0837 248.402 30.1025 248.435 29.7037 248.893C28.0268 248.956 25.4865 246.499 24.1532 245.471C21.8001 246.471 20.0049 248.533 17.4897 249.533C17.9615 247.08 18.6859 244.683 19.6513 242.379L16.1619 239.713C15.435 239.149 14.7021 238.651 14.5843 237.715C15.8417 236.625 19.6736 236.96 21.3441 236.931C21.9827 234.704 22.5821 232.338 23.7892 230.341Z"/><path fill="#F6F6F6" d="M95.1247 153.359C95.2434 153.422 95.3701 153.472 95.4809 153.549C96.8443 154.489 97.5545 158.366 98.0258 159.997C99.7631 160.019 101.858 159.861 103.548 160.24C104.164 160.378 104.417 160.432 104.775 160.984C104.277 162.644 101.278 164.277 99.861 165.278C100.371 166.83 101.004 168.436 101.314 170.041C101.453 170.762 101.5 171.313 101.082 171.927C100.998 171.94 100.914 171.965 100.828 171.966C99.3091 171.984 96.5991 169.353 95.4076 168.382C93.2999 170.088 91.3566 171.581 88.828 172.598C89.3744 170.109 90.1267 167.715 91.0074 165.326C89.5961 164.306 87.9905 163.305 86.7167 162.119C86.2539 161.688 85.9838 161.42 85.9548 160.771C87.2401 159.692 91.0374 160.038 92.7149 160.002C93.3927 157.754 94.02 155.439 95.1247 153.359Z"/><path fill="#F6F6F6" d="M213.91 199.792L214.501 199.962C215.948 201.271 216.484 204.441 217.04 206.312L221.144 206.407C222.037 206.434 223.202 206.449 223.848 207.141L223.738 207.731C222.398 209.289 220.443 210.41 218.719 211.507C219.345 213.066 220.393 215.367 220.361 217.033C220.349 217.624 220.286 217.692 219.893 218.089C218.185 218.163 216.019 215.987 214.704 214.949C213.521 214.975 209.473 218.273 207.814 218.958C208.267 216.439 209.107 214.01 209.969 211.606C208.558 210.599 206.874 209.589 205.657 208.353C205.204 207.893 204.99 207.687 205.023 207.016C206.382 205.943 209.858 206.363 211.588 206.372C212.312 204.155 213.067 201.967 213.91 199.792Z"/><path fill="#F6F6F6" d="M95.0351 122.831L95.592 123.043C96.9816 124.431 97.5297 127.546 98.0956 129.44C99.4605 129.433 100.838 129.396 102.202 129.453C103.181 129.494 104.201 129.526 104.891 130.273C104.431 131.949 101.322 133.601 99.8476 134.497C100.354 136.228 101.375 138.311 101.357 140.116C101.351 140.728 101.312 140.792 100.896 141.194C99.1416 141.186 96.9924 139.01 95.648 137.935C93.9212 138.516 92.4452 140.236 90.7459 141.057C90.1366 141.352 89.8288 141.452 89.1924 141.231C88.831 139.699 90.4655 136.185 90.9846 134.64C89.6773 133.722 88.3018 132.828 87.0828 131.793C86.4917 131.292 86.0719 130.897 86.0244 130.11C87.3288 128.98 90.9053 129.442 92.618 129.465C93.3437 127.223 94.0211 124.964 95.0351 122.831Z"/><path fill="#F6F6F6" d="M142.759 184.111C142.87 184.167 142.988 184.212 143.093 184.279C144.362 185.088 145.233 189.234 145.689 190.736C146.796 190.724 147.903 190.719 149.01 190.722C150.189 190.728 151.563 190.666 152.431 191.539C151.984 193.252 148.696 195.003 147.249 195.954C147.965 197.462 149.052 199.896 149.097 201.571C149.113 202.142 149.115 202.156 148.713 202.597C146.973 202.677 144.526 200.281 143.162 199.226C141.107 199.786 139.633 202.334 137.406 202.734C136.942 202.817 137.125 202.823 136.703 202.507C136.578 200.85 137.938 197.525 138.677 196.041C137.205 195.002 135.451 193.96 134.178 192.683C133.733 192.236 133.545 192.035 133.569 191.381C134.95 190.278 138.557 190.708 140.331 190.717C140.871 188.489 141.544 186.071 142.759 184.111Z"/><path fill="#F6F6F6" d="M71.2344 107.869L71.7506 108.004C73.126 109.082 73.7414 112.682 74.1878 114.374C75.5128 114.381 76.8405 114.376 78.1651 114.403C79.0781 114.422 80.2788 114.456 80.9435 115.16L80.8828 115.749C79.6458 117.357 77.6544 118.441 75.9806 119.554C76.5434 121.149 77.9078 124.011 77.6046 125.642C77.5211 126.092 77.573 125.922 77.1312 126.243C75.3318 126.087 73.2919 124.059 71.8865 122.957C69.8627 123.127 68.1993 126.086 65.9727 126.411L65.5634 126.088C65.2162 124.082 66.5299 121.483 67.219 119.596C65.832 118.642 64.1781 117.684 62.9848 116.495C62.4993 116.011 62.2791 115.743 62.2552 115.057C63.5446 113.905 67.1201 114.42 68.8243 114.469C69.5548 112.258 70.1585 109.939 71.2344 107.869Z"/><path fill="#F6F6F6" d="M214.07 169.084C214.271 169.151 214.388 169.175 214.569 169.314C215.875 170.323 216.537 174.098 216.99 175.731C218.782 175.698 221.136 175.408 222.842 175.926C223.425 176.102 223.49 176.136 223.761 176.647C223.218 178.284 220.286 179.841 218.868 180.812C219.325 182.416 219.923 184.008 220.246 185.644C220.391 186.38 220.467 186.961 220.032 187.587C218.42 187.718 215.687 185.082 214.394 184.087C212.363 185.637 210.336 187.269 207.942 188.217C208.286 185.683 209.085 183.356 210.002 180.977C208.625 179.985 207.041 179.002 205.815 177.829C205.313 177.348 205.051 177.075 205.013 176.376C206.323 175.254 209.934 175.698 211.66 175.72C212.351 173.454 212.981 171.198 214.07 169.084Z"/><path fill="#F6F6F6" d="M118.964 230.383C119.104 230.457 119.254 230.515 119.385 230.606C120.64 231.475 121.364 235.417 121.784 236.951C124.376 237.014 126.96 236.965 129.522 237.411C127.825 239.329 125.629 240.805 123.585 242.33C124.073 243.666 124.614 245.012 124.999 246.383C125.236 247.23 125.349 247.97 124.909 248.752L124.267 248.82C122.431 248.164 120.892 246.654 119.408 245.421C117.035 246.526 115.226 248.494 112.712 249.539C113.129 247.069 113.809 244.664 114.879 242.396C112.761 240.805 110.581 239.267 108.694 237.401C111.295 237.031 113.911 237.005 116.533 236.937C117.179 234.679 117.783 232.43 118.964 230.383Z"/><path fill="#F6F6F6" d="M23.6612 199.796C23.859 199.844 23.9793 199.86 24.1664 199.969C25.4093 200.696 26.2386 204.825 26.6671 206.286C28.5748 206.388 31.1374 206.038 32.915 206.761C33.3994 206.958 33.3008 206.969 33.4819 207.403C32.6859 209.076 29.9215 210.514 28.3685 211.554C28.9616 213.197 29.8036 215.031 30.0594 216.762C30.1508 217.381 30.1687 217.64 29.7928 218.166C28.1661 218.344 25.5942 215.94 24.302 214.97C22.9547 215.04 21.0664 217.014 19.806 217.741C19.1119 218.141 18.5767 218.421 17.7909 218.201C17.4594 216.803 19.1084 212.97 19.6613 211.608C17.4633 210.111 15.3544 208.544 13.4794 206.65C16.0606 206.33 18.7298 206.385 21.3296 206.319C21.8779 204.103 22.6545 201.846 23.6612 199.796Z"/><path fill="#F6F6F6" d="M47.5384 153.367C47.5989 153.398 47.6625 153.423 47.7198 153.459C49.2623 154.428 49.935 158.25 50.4327 159.986C53.0502 160.038 55.6657 160.166 58.2757 160.37C56.5071 162.327 54.2813 163.815 52.1618 165.363C52.76 166.942 53.5559 168.7 53.809 170.372C53.9061 171.014 53.9546 171.352 53.5697 171.903C51.9248 172.044 49.0772 169.46 47.7458 168.494C46.391 169.531 44.9453 170.828 43.3762 171.523C42.7649 171.794 42.5117 171.893 41.8821 171.659C41.262 170.075 42.8248 166.901 43.3923 165.306C42.0799 164.375 40.7269 163.463 39.4774 162.448C38.8849 161.967 38.4476 161.584 38.3679 160.811C39.5828 159.695 43.4869 160.035 45.1288 159.997C45.7813 157.785 46.3917 155.38 47.5384 153.367Z"/><path fill="#F6F6F6" d="M214.092 230.318C214.225 230.385 214.368 230.435 214.491 230.519C215.813 231.415 216.529 235.368 216.968 236.955C218.608 236.96 220.337 236.867 221.963 237.069C222.696 237.16 223.276 237.273 223.734 237.866C223.386 239.465 220.068 241.338 218.727 242.303C219.322 243.836 220.208 245.703 220.352 247.346C220.408 247.987 220.385 248.262 219.976 248.755C218.298 248.926 215.796 246.481 214.486 245.466C212.821 245.961 210.288 248.587 207.789 249.475C208.385 246.999 209.109 244.611 209.999 242.225C208.586 241.247 206.989 240.281 205.724 239.115C205.229 238.658 204.974 238.387 204.942 237.712C206.288 236.603 209.929 236.97 211.688 236.949C212.363 234.689 213 232.418 214.092 230.318Z"/><path fill="#F6F6F6" d="M190.228 122.873L190.819 123.063C192.181 124.542 192.665 127.472 193.207 129.418L196.92 129.46C197.902 129.475 199.251 129.451 199.979 130.2L199.906 130.779C198.606 132.362 196.635 133.454 194.941 134.581C195.541 136.187 196.862 139.061 196.552 140.733C196.477 141.141 196.452 141.027 196.041 141.274C194.199 141.064 192.075 138.942 190.631 137.791C189.282 138.805 186.571 141.338 184.864 141.103L184.542 140.656C184.413 138.671 185.505 136.476 186.183 134.627C184.754 133.642 183.139 132.669 181.872 131.477C181.377 131.011 181.146 130.76 181.113 130.08C182.438 128.989 186.087 129.45 187.811 129.474C188.517 127.252 189.133 124.939 190.228 122.873Z"/><path fill="#F6F6F6" d="M166.364 199.782L166.997 199.978C168.339 201.253 168.901 204.479 169.431 206.283C171.359 206.398 174.454 205.95 176.113 207.005L176.213 207.467C175.227 209.166 172.743 210.463 171.111 211.565C171.766 213.149 172.754 215.366 172.853 217.078C172.887 217.665 172.834 217.744 172.477 218.172C170.776 218.232 168.357 215.981 166.974 214.965C164.891 215.233 163.281 218.09 161.107 218.494L160.752 218.228C160.369 216.205 161.693 213.446 162.351 211.508C160.14 210.119 158.066 208.512 156.274 206.611C158.852 206.381 161.44 206.416 164.026 206.412C164.738 204.173 165.426 201.94 166.364 199.782Z"/><path fill="#F6F6F6" d="M71.2933 230.33C71.4984 230.401 71.6203 230.428 71.805 230.573C73.1159 231.598 73.7364 235.288 74.179 236.928C75.9933 237.001 77.9983 236.768 79.7729 237.176C80.3859 237.317 80.6433 237.402 80.977 237.935C80.5324 239.55 77.3252 241.296 75.9386 242.264C76.5323 243.686 77.0929 245.232 77.505 246.717C77.7253 247.511 77.83 248.087 77.4134 248.81C75.8283 249.048 73.1804 246.621 71.8968 245.683C70.9527 245.209 67.3316 249.124 65.4885 248.937L65.2475 248.467C65.6217 246.357 66.5163 244.227 67.1779 242.187C65.8732 241.279 64.4774 240.399 63.2746 239.359C62.7004 238.862 62.3336 238.49 62.291 237.722C63.5584 236.572 67.1706 236.974 68.8707 236.969C69.6092 234.741 70.2091 232.418 71.2933 230.33Z"/><path fill="#F6F6F6" d="M118.848 107.796C119.054 107.863 119.184 107.892 119.372 108.024C120.648 108.915 121.449 112.887 121.925 114.445C123.182 114.415 124.443 114.372 125.701 114.386C126.747 114.397 127.892 114.403 128.648 115.184C128.18 116.95 125.056 118.574 123.535 119.539C124.132 121.071 125.516 124.012 125.153 125.638C125.066 126.027 124.897 126.008 124.583 126.182C122.661 125.889 120.868 124.041 119.386 122.845C117.602 123.696 116.135 125.273 114.296 126.057C113.766 126.283 113.737 126.34 113.192 126.097C112.729 124.333 114.198 121.323 114.81 119.59C113.376 118.735 111.741 117.597 110.507 116.469C110.009 116.014 109.762 115.724 109.724 115.052C111.018 113.935 114.717 114.402 116.431 114.427C117.149 112.177 117.829 109.934 118.848 107.796Z"/><path fill="#F6F6F6" d="M71.2857 169.097C71.4353 169.155 71.5941 169.192 71.7344 169.269C72.9881 169.96 73.825 174.297 74.1741 175.717C75.9491 175.694 78.0666 175.489 79.8002 175.85C80.404 175.976 80.6538 176.031 81.0097 176.565C80.5477 178.207 77.4006 179.94 75.9977 180.934C76.4453 182.215 76.9519 183.512 77.2962 184.824C77.5311 185.718 77.7873 186.64 77.2947 187.465C77.2106 187.481 77.128 187.509 77.0425 187.512C75.6001 187.565 73.0549 185.237 71.8516 184.341C71.8348 184.335 71.819 184.324 71.8013 184.324C70.5984 184.273 68.2067 186.713 66.9726 187.397C66.4353 187.695 66.1315 187.812 65.5386 187.608C64.9601 186.107 66.6481 182.477 67.1791 180.915C65.8062 179.948 64.1732 178.981 62.9894 177.788C62.508 177.303 62.2935 177.052 62.2715 176.367C63.5899 175.237 67.1129 175.71 68.8312 175.74C69.5997 173.518 70.1733 171.175 71.2857 169.097Z"/><path fill="#F6F6F6" d="M166.476 230.36C166.55 230.39 166.628 230.412 166.698 230.449C168.21 231.24 168.925 235.296 169.377 236.926C171.979 236.983 174.594 236.972 177.171 237.384C175.395 239.312 173.191 240.81 171.097 242.369C171.778 243.889 172.766 246.068 172.896 247.723C172.943 248.313 172.91 248.408 172.556 248.842C170.829 248.917 168.263 246.542 166.867 245.523C165.86 245.733 164.641 247.035 163.751 247.635C162.882 248.221 161.652 249.156 160.565 248.945C160.089 247.646 161.88 243.62 162.414 242.186C160.942 241.229 158.892 240.064 157.759 238.734C157.376 238.283 157.354 238.283 157.412 237.668C158.885 236.599 162.271 236.969 164.097 236.955C164.742 234.74 165.348 232.385 166.476 230.36Z"/><path fill="#F6F6F6" d="M190.153 214.794L190.752 214.982C192.13 216.185 192.702 219.596 193.166 221.38C194.954 221.359 197.986 220.979 199.534 221.855C199.876 222.048 199.798 222.216 199.858 222.567C198.893 224.282 196.554 225.463 194.933 226.535C195.556 228.117 197.098 231.461 196.431 233.062L195.959 233.253C194.089 232.868 192.358 231.116 190.906 229.958C188.858 230.21 187.292 232.893 185.187 233.354C184.776 233.445 184.884 233.394 184.519 233.104C184.173 231.146 185.497 228.472 186.16 226.609C184.765 225.62 183.11 224.63 181.91 223.408C181.431 222.92 181.244 222.691 181.246 222.007C182.58 220.905 186.092 221.416 187.806 221.469C188.52 219.209 189.241 216.985 190.153 214.794Z"/><path fill="#F6F6F6" d="M47.5221 184.093C47.6424 184.142 47.7691 184.177 47.883 184.239C49.1673 184.939 50.0193 189.264 50.3967 190.724C52.0853 190.704 53.9368 190.562 55.6076 190.805C56.3176 190.908 56.7895 191.015 57.2073 191.61C56.7617 193.269 53.5027 195.027 52.0838 196.013C52.4339 196.765 52.72 197.525 52.9981 198.306C53.4026 199.442 54.3193 201.281 53.7594 202.456L53.2573 202.612C51.26 202.019 49.5174 200.452 47.8603 199.233C45.7933 199.64 44.0812 202.985 41.756 202.733C41.1267 201.206 42.8805 197.539 43.4176 196.007C42.0123 195.008 40.297 193.997 39.1033 192.75C38.6487 192.275 38.4789 192.047 38.4999 191.391C39.8695 190.256 43.3549 190.71 45.1146 190.732C45.7699 188.5 46.3732 186.13 47.5221 184.093Z"/><path fill="#F6F6F6" d="M142.804 153.362C144.453 154.504 145.046 158.076 145.586 159.993C147.336 160.028 149.277 159.921 151.001 160.217C151.642 160.327 152.045 160.377 152.449 160.915C152.042 162.42 148.644 164.438 147.366 165.391C147.938 166.951 148.828 168.791 148.98 170.439C149.038 171.073 149.061 171.339 148.618 171.834C146.899 171.928 144.376 169.524 143.009 168.495C140.847 170.028 138.783 171.582 136.417 172.799C136.899 170.261 137.601 167.746 138.669 165.389C136.5 163.836 134.322 162.31 132.483 160.364C135.063 160.153 137.667 160.098 140.253 159.985C140.931 157.815 141.525 155.265 142.804 153.362Z"/><path fill="#F6F6F6" d="M47.4823 122.873L48.0669 123.065C49.3904 124.442 49.9199 127.556 50.4461 129.414C51.8701 129.427 53.301 129.417 54.7239 129.474C55.569 129.507 56.6918 129.548 57.3014 130.198L57.1953 130.786C55.8742 132.352 53.8375 133.492 52.1305 134.608C52.7827 136.193 53.5416 138.068 53.8496 139.753C53.9701 140.413 53.9658 140.712 53.6019 141.268C51.9632 141.415 49.4046 139.04 48.0958 138.071C46.8679 137.718 43.8114 141.386 42.0224 141.462L41.6876 141.113C41.4574 139.104 42.7467 136.497 43.4316 134.594C41.9635 133.713 39.7414 132.38 38.6771 131.05C38.3398 130.628 38.3332 130.619 38.4043 130.061C39.9081 129.003 43.222 129.442 45.0557 129.467C45.7365 127.277 46.3281 124.863 47.4823 122.873Z"/><path fill="#F6F6F6" d="M166.477 169.128L167.039 169.339C168.39 171.002 168.848 173.697 169.39 175.723C171.217 175.697 173.663 175.423 175.401 175.954C175.952 176.123 175.97 176.1 176.235 176.64C175.646 178.269 172.513 179.953 171.057 180.954C171.733 182.494 172.529 184.354 172.831 186.008C172.952 186.671 172.955 186.978 172.595 187.543C170.918 187.718 168.211 185.215 166.855 184.22C165.043 184.428 163.045 187.778 160.736 187.778L160.419 187.376C160.498 185.343 161.721 182.919 162.364 180.959C160.909 179.923 159.21 178.893 157.943 177.629C157.502 177.189 157.319 176.982 157.335 176.339C158.699 175.249 162.309 175.714 164.06 175.741C164.724 173.511 165.322 171.16 166.477 169.128Z"/><path fill="#F6F6F6" d="M23.7374 107.88L24.2069 108.043C25.5864 109.299 26.1669 112.607 26.706 114.425C28.4721 114.386 31.3627 114.011 32.9407 114.761C33.376 114.968 33.2163 114.862 33.4361 115.384C32.7643 117.073 29.8713 118.568 28.3629 119.578C28.9382 121.178 29.7455 122.951 30.0247 124.63C30.1331 125.282 30.168 125.644 29.7975 126.194C28.1345 126.362 25.5298 123.946 24.1887 122.958C22.9807 123.1 20.9419 125.07 19.8898 125.78C19.2781 126.193 18.8013 126.477 18.0583 126.334C18.0188 126.259 17.9678 126.188 17.9396 126.108C17.4267 124.641 19.0855 121.102 19.6817 119.648C18.2507 118.638 16.6778 117.647 15.375 116.475C14.8732 116.024 14.6145 115.762 14.5863 115.086C15.9899 113.999 19.4448 114.406 21.2162 114.421C21.9304 112.254 22.5222 109.822 23.7374 107.88Z"/><path fill="#F6F6F6" d="M142.665 122.816C142.801 122.872 142.994 122.947 143.108 123.021C144.403 123.866 145.241 127.952 145.697 129.432C147.515 129.42 150.225 129.122 151.897 129.802C152.393 130.003 152.212 129.876 152.458 130.426C151.717 132.087 148.841 133.588 147.314 134.612C147.869 136.136 148.487 137.675 148.9 139.244C149.102 140.008 149.221 140.579 148.83 141.28C147.25 141.485 144.406 138.915 143.102 137.968C141.655 138.352 140.1 140.059 138.708 140.844C138.025 141.229 137.462 141.516 136.696 141.289C136.472 140.032 138.073 136.009 138.64 134.64C137.209 133.701 135.503 132.671 134.281 131.477C133.797 131.005 133.603 130.759 133.622 130.086C135.054 128.984 138.51 129.435 140.304 129.453C140.832 127.19 141.614 124.89 142.665 122.816Z"/><path fill="#F6F6F6" d="M71.1592 199.788L71.8471 200.003C73.186 201.346 73.6942 204.451 74.2104 206.289C75.7983 206.352 79.9056 206.03 80.9935 207.126L80.9342 207.666C79.6485 209.258 77.6552 210.383 75.9644 211.51C76.5668 213.103 77.9325 216.073 77.5895 217.71C77.5056 218.111 77.4759 217.998 77.0567 218.219C75.2122 217.924 73.3669 216.081 71.9165 214.946C70.0512 215.005 67.9673 218.273 65.5318 218.349L65.1891 218.016C65.2085 216.348 66.5827 213.308 67.2168 211.572C66.0327 210.738 64.8602 209.889 63.6994 209.023C63.0152 208.503 62.2388 207.977 62.1196 207.091C63.2902 206.01 67.2095 206.391 68.8063 206.378C69.6329 204.193 70.2843 201.964 71.1592 199.788Z"/><path fill="#F6F6F6" d="M118.898 169.065C119.03 169.123 119.17 169.164 119.293 169.238C120.538 169.99 121.457 174.292 121.896 175.74C123.529 175.711 125.25 175.582 126.875 175.768C127.623 175.853 128.191 175.965 128.66 176.566C128.646 176.645 128.643 176.727 128.617 176.804C128.133 178.26 124.808 180.055 123.497 180.893C124.136 182.46 125.307 184.911 125.244 186.593C125.223 187.13 125.211 187.115 124.8 187.509C123.055 187.557 120.754 185.262 119.412 184.202C117.388 184.785 115.904 187.225 113.75 187.67C113.262 187.771 113.457 187.773 113.001 187.467C112.772 185.657 114.184 182.721 114.83 180.997C113.413 179.968 111.759 178.944 110.513 177.715C110.043 177.252 109.807 177.024 109.818 176.341C111.239 175.255 114.69 175.701 116.473 175.721C117.142 173.45 117.831 171.185 118.898 169.065Z"/><path fill="#F6F6F6" d="M23.7831 169.103C23.8985 169.152 24.0191 169.191 24.1292 169.252C25.3541 169.922 26.2717 174.351 26.6601 175.732C28.0041 175.714 29.359 175.67 30.7023 175.714C31.7111 175.746 32.7385 175.762 33.4551 176.519C32.98 178.253 29.7524 179.965 28.2657 180.925C28.9236 182.363 29.5503 183.966 29.9602 185.494C30.168 186.269 30.233 186.82 29.8292 187.52C29.7413 187.537 29.6549 187.567 29.5655 187.572C28.0289 187.652 25.358 185.082 24.1434 184.142C22.3016 184.88 20.059 187.937 18.0106 187.646C17.417 186.034 18.9898 182.601 19.6943 181.008C18.199 179.941 16.1472 178.777 14.958 177.368C14.6056 176.95 14.5693 176.917 14.5985 176.354C15.9679 175.266 19.5205 175.703 21.2733 175.718C21.9518 173.493 22.5623 171.1 23.7831 169.103Z"/><path fill="#F6F6F6" d="M231.773 88.2489C237.529 87.8275 243.419 88.0671 249.194 88.0666L279.396 88.0677L373.426 88.0736L442.476 88.0698L463.47 88.0561C468.772 88.055 474.127 87.885 479.4 88.5262C486.003 89.3293 493.36 92.6022 498.388 96.9536C503.594 101.46 508.129 107.265 510.085 113.982C510.743 116.434 511.078 119.479 512 121.803L512 139.924L512 165.696L512 191.513L512 217.294L512 243.119L328.009 243.111L270.879 243.122C260.052 243.126 249.192 243.301 238.368 243.054C238.298 234.471 238.289 225.887 238.34 217.303C237.937 208.778 238.315 200.007 238.365 191.465C238.182 182.903 238.274 174.296 238.346 165.732C238.081 157.166 238.203 148.447 238.377 139.875C238.294 131.256 238.282 122.635 238.339 114.015C238.265 109.336 239.07 98.6661 237.929 94.7952C236.957 91.4973 234.623 89.8218 231.773 88.2489Z"/><path fill="#F6F6F6" d="M238.365 191.465L439.666 191.503C463.765 191.503 487.909 191.17 512 191.513L512 217.294L512 243.119L328.009 243.111L270.879 243.122C260.052 243.126 249.192 243.301 238.368 243.054C238.298 234.471 238.289 225.887 238.34 217.303C237.937 208.778 238.315 200.007 238.365 191.465Z"/><path fill="#FE4B54" d="M238.365 191.465L439.666 191.503C463.765 191.503 487.909 191.17 512 191.513L512 217.294L238.34 217.303C237.937 208.778 238.315 200.007 238.365 191.465Z"/><path fill="#F6F6F6" d="M231.773 88.2489C237.529 87.8275 243.419 88.0671 249.194 88.0666L279.396 88.0677L373.426 88.0736L442.476 88.0698L463.47 88.0561C468.772 88.055 474.127 87.885 479.4 88.5262C486.003 89.3293 493.36 92.6022 498.388 96.9536C503.594 101.46 508.129 107.265 510.085 113.982C510.743 116.434 511.078 119.479 512 121.803L512 139.924L321.591 139.913C293.866 139.914 266.097 140.258 238.377 139.875C238.294 131.256 238.282 122.635 238.339 114.015C238.265 109.336 239.07 98.6661 237.929 94.7952C236.957 91.4973 234.623 89.8218 231.773 88.2489Z"/><path fill="#FE4B54" d="M231.773 88.2489C237.529 87.8275 243.419 88.0671 249.194 88.0666L279.396 88.0677L373.426 88.0736L442.476 88.0698L463.47 88.0561C468.772 88.055 474.127 87.885 479.4 88.5262C486.003 89.3293 493.36 92.6022 498.388 96.9536C503.594 101.46 508.129 107.265 510.085 113.982C499.279 114.144 488.454 114.021 477.646 114.021L417.861 114.021L238.339 114.015C238.265 109.336 239.07 98.6661 237.929 94.7952C236.957 91.4973 234.623 89.8218 231.773 88.2489Z"/><path fill="#FE4B54" d="M238.377 139.875C266.097 140.258 293.866 139.914 321.591 139.913L512 139.924L512 165.696L352.71 165.661C314.604 165.661 276.443 165.234 238.346 165.732C238.081 157.166 238.203 148.447 238.377 139.875Z"/><path fill="#F6F6F6" d="M512 243.119L512 268.956L512 294.74L512 320.5L0 320.5L0 294.72L0 262.301C1.35781 264.872 2.83547 267.571 5.84794 268.422C10.0152 269.6 17.1681 268.963 21.6161 268.947L40.7761 268.94L129.057 268.94L196.98 268.94L218.328 268.948C222.908 268.949 227.554 269.101 232.12 268.718C233.328 268.058 234.546 267.413 235.525 266.423C236.745 265.186 237.605 263.64 238.01 261.95C238.974 258.025 238.302 247.631 238.368 243.054C249.192 243.301 260.052 243.126 270.879 243.122L328.009 243.111L512 243.119Z"/><path fill="#FE4B54" d="M0 294.72L512 294.74L512 320.5L0 320.5L0 294.72Z"/><path fill="#FE4B54" d="M512 243.119L512 268.956C489.104 268.688 466.183 268.905 443.285 268.905L314.495 268.906L259.526 268.909L242.714 268.921C239.216 268.923 235.6 269.088 232.12 268.718C233.328 268.058 234.546 267.413 235.525 266.423C236.745 265.186 237.605 263.64 238.01 261.95C238.974 258.025 238.302 247.631 238.368 243.054C249.192 243.301 260.052 243.126 270.879 243.122L328.009 243.111L512 243.119Z"/><path fill="#F6F6F6" d="M0 320.5L512 320.5L512 346.31L0 346.342L0 320.5Z"/><path fill="#FE4B54" d="M512 346.31L512 372.127L0.342099 372.113L0 372.112L0 346.342L512 346.31Z"/><path fill="#FE4B54" d="M1.98207 398.026L323.649 397.986L447.46 397.986L487.923 397.98C495.276 397.977 502.715 397.747 510.056 398.053C509.571 399.415 509.071 400.765 508.443 402.069C504.01 411.335 496.035 418.427 486.316 421.748C477.136 424.943 466.716 424.014 457.115 424.013L435.511 424.007L382.37 424.002L226.853 424.001L100.722 424.001L59.6741 424.003C52.4078 424.008 45.0454 424.266 37.7904 423.958C32.194 423.72 26.5839 422.517 21.5444 420.023C12.3584 415.583 5.319 407.668 1.98207 398.026Z"/></svg>